<?xml version="1.0" encoding="utf-8"?>
<!-- Generator: Adobe Illustrator 23.0.1, SVG Export Plug-In . SVG Version: 6.00 Build 0)  -->
<svg version="1.1" id="Layer_1" xmlns="http://www.w3.org/2000/svg" xmlns:xlink="http://www.w3.org/1999/xlink" x="0px" y="0px"
	 viewBox="0 0 216.3 217.6" style="enable-background:new 0 0 216.3 217.6;" xml:space="preserve">
<style type="text/css">
	.st0{fill:#3789A7;}
	.st1{fill:#4E685C;}
	.st2{fill:#0D737F;}
	.st3{fill:none;stroke:#0D737F;stroke-width:3;stroke-miterlimit:10;}
	.st4{fill:#B0F2F4;}
	.st5{fill:#4E685C;stroke:#4E685C;stroke-width:0.5;stroke-miterlimit:10;}
	.st6{fill:none;stroke:#D1CBB4;stroke-width:4;stroke-miterlimit:10;}
</style>
<g>
	<g>
		<g>
			<path class="st0" d="M78.7,74c0.1,7.3,6.2,13.1,13.5,13c7.3-0.1,13.1-6.2,13-13.5s-6.2-13.1-13.5-13C84.4,60.7,78.6,66.7,78.7,74
				z"/>
			<path class="st0" d="M125.9,59.9c-7.3,0.1-13.1,6.2-13,13.5c0.1,7.3,6.2,13.1,13.5,13c7.3-0.1,13.1-6.2,13-13.5
				C139.2,65.6,133.2,59.8,125.9,59.9z"/>
		</g>
		<g>
			<g>
				<g>
					<path class="st1" d="M76.1,52.7c-0.1-3.8-1.7-7.5-4.4-10.1c-1.3-1.3-2.9-2.3-4.6-3.1c-1.7-0.8-3.5-1.3-5.4-1.6v-0.1
						c1.9-0.3,3.9,0,5.8,0.7c1.8,0.7,3.4,2,4.8,3.4c1.3,1.4,2.3,3.1,3,5C76,48.9,76.3,50.8,76.1,52.7L76.1,52.7L76.1,52.7z"/>
				</g>
				<g>
					<path class="st1" d="M76.1,52.7c-0.7-3.7-2.8-7.1-5.8-9.4c-1.5-1.1-3.2-1.8-5-2.4c-1.8-0.5-3.6-0.8-5.5-0.8l0-0.1
						c1.9-0.6,3.9-0.5,5.8-0.1c1.9,0.4,3.7,1.5,5.2,2.7c1.5,1.3,2.8,2.8,3.7,4.5c0.9,1.7,1.5,3.6,1.7,5.5L76.1,52.7z"/>
				</g>
				<g>
					<path class="st1" d="M76.1,52.7c-1.2-3.6-3.8-6.7-7.1-8.4c-1.6-0.9-3.4-1.4-5.2-1.7c-1.8-0.3-3.7-0.3-5.6,0l0-0.1
						c1.8-0.8,3.8-1.1,5.7-0.9c2,0.2,3.9,0.9,5.5,2s3.1,2.4,4.3,3.9C74.9,49.1,75.7,50.8,76.1,52.7L76.1,52.7z"/>
				</g>
				<g>
					<path class="st1" d="M76.1,52.7c-1.7-3.4-4.7-6.1-8.2-7.3c-1.8-0.6-3.6-0.9-5.4-0.9c-1.8,0-3.7,0.3-5.5,0.8l0-0.1
						c1.6-1.1,3.6-1.6,5.5-1.7c2-0.1,4,0.4,5.8,1.1c1.8,0.8,3.4,1.9,4.8,3.3C74.4,49.3,75.5,50.9,76.1,52.7L76.1,52.7z"/>
				</g>
				<g>
					<path class="st1" d="M76.1,52.7c-2.2-3.1-5.5-5.3-9.2-6.1c-1.8-0.4-3.7-0.3-5.5-0.1c-1.8,0.2-3.6,0.8-5.4,1.6l0-0.1
						c1.5-1.3,3.3-2.1,5.2-2.5c1.9-0.4,4-0.2,5.8,0.3c1.9,0.5,3.7,1.4,5.2,2.5C73.9,49.6,75.2,51.1,76.1,52.7L76.1,52.7z"/>
				</g>
				<g>
					<path class="st1" d="M76.1,52.7c-2.6-2.8-6.2-4.5-9.9-4.7c-1.9-0.1-3.7,0.2-5.5,0.7c-1.8,0.5-3.5,1.3-5.1,2.4L55.6,51
						c1.3-1.5,3-2.6,4.8-3.2c1.9-0.7,3.9-0.8,5.8-0.5c1.9,0.2,3.8,0.8,5.5,1.8C73.5,49.9,75,51.2,76.1,52.7L76.1,52.7z"/>
				</g>
				<g>
					<path class="st1" d="M76.1,52.8c-3-2.4-6.8-3.5-10.5-3.2c-1.8,0.2-3.6,0.7-5.3,1.5c-1.7,0.8-3.2,1.8-4.7,3.1L55.6,54
						c1-1.6,2.6-3,4.3-3.9c1.8-0.9,3.7-1.3,5.7-1.4c2-0.1,3.9,0.3,5.7,0.9C73.1,50.4,74.8,51.4,76.1,52.8L76.1,52.8z"/>
				</g>
			</g>
			<g>
				<g>
					<path class="st1" d="M140.1,52.7c-0.1-1.9,0.2-3.9,0.9-5.7c0.7-1.8,1.7-3.5,3-5c1.3-1.5,2.9-2.7,4.8-3.4c1.8-0.7,3.8-1,5.8-0.7
						V38c-1.9,0.3-3.7,0.8-5.4,1.6c-1.7,0.8-3.2,1.8-4.6,3.1C141.9,45.2,140.3,48.9,140.1,52.7L140.1,52.7L140.1,52.7z"/>
				</g>
				<g>
					<path class="st1" d="M140.1,52.7c0.2-1.9,0.8-3.8,1.7-5.5c0.9-1.7,2.2-3.2,3.7-4.5c1.5-1.3,3.3-2.3,5.2-2.7
						c1.9-0.4,3.9-0.4,5.8,0.1l0,0.1c-1.9,0-3.8,0.2-5.5,0.8c-1.8,0.5-3.5,1.3-5,2.4c-3,2.2-5.1,5.6-5.8,9.4L140.1,52.7z"/>
				</g>
				<g>
					<path class="st1" d="M140.1,52.7c0.5-1.8,1.3-3.6,2.5-5.2c1.2-1.6,2.6-2.9,4.3-3.9c1.7-1,3.6-1.8,5.5-2c2-0.2,4,0.1,5.7,0.9
						l0,0.1c-1.9-0.3-3.8-0.3-5.6,0c-1.8,0.3-3.6,0.8-5.3,1.7C144,46.1,141.4,49.1,140.1,52.7L140.1,52.7z"/>
				</g>
				<g>
					<path class="st1" d="M140.1,52.7c0.8-1.8,1.8-3.4,3.2-4.8c1.4-1.4,3-2.5,4.8-3.3c1.8-0.8,3.8-1.3,5.8-1.1
						c2,0.1,3.9,0.7,5.5,1.7l0,0.1c-1.8-0.5-3.7-0.9-5.5-0.8c-1.8,0-3.7,0.3-5.4,0.9c-3.5,1.3-6.5,3.9-8.2,7.3L140.1,52.7z"/>
				</g>
				<g>
					<path class="st1" d="M140.1,52.7c1-1.6,2.3-3.1,3.8-4.3c1.6-1.2,3.3-2,5.2-2.5c1.9-0.5,3.9-0.7,5.9-0.3
						c1.9,0.4,3.8,1.2,5.2,2.5l-0.1,0.1c-1.7-0.8-3.5-1.4-5.4-1.6c-1.8-0.3-3.7-0.3-5.5,0.1C145.7,47.4,142.4,49.6,140.1,52.7
						L140.1,52.7z"/>
				</g>
				<g>
					<path class="st1" d="M140.1,52.7c1.2-1.5,2.7-2.7,4.4-3.7c1.7-0.9,3.6-1.5,5.5-1.8c1.9-0.2,4-0.1,5.8,0.5
						c1.9,0.7,3.6,1.8,4.8,3.2l-0.1,0.1c-1.6-1-3.3-1.9-5.1-2.4c-1.8-0.5-3.6-0.8-5.5-0.7C146.4,48.3,142.8,50,140.1,52.7
						L140.1,52.7z"/>
				</g>
				<g>
					<path class="st1" d="M140.1,52.7c1.4-1.3,3.1-2.3,4.9-3c1.8-0.7,3.8-1,5.7-0.9c1.9,0,3.9,0.4,5.7,1.4c1.7,0.9,3.3,2.3,4.3,3.9
						l-0.1,0.1c-1.4-1.3-3-2.3-4.7-3.1c-1.7-0.8-3.4-1.3-5.3-1.5C147,49.2,143.1,50.4,140.1,52.7L140.1,52.7z"/>
				</g>
			</g>
		</g>
		<path class="st2" d="M123.8,58.8c-6.5,0.1-12,3.8-14.9,9.1c-3.1-5.2-8.8-8.6-15.2-8.5c-9.6,0.2-17.2,8.1-17,17.7
			c0.2,9.6,8.1,17.2,17.7,17c6.5-0.1,12-3.8,14.9-9.1c3.1,5.2,8.8,8.6,15.2,8.5c9.6-0.2,17.2-8.1,17-17.7
			C141.3,66.3,133.4,58.6,123.8,58.8z M92.2,87c-7.3,0.1-13.3-5.7-13.5-13s5.7-13.3,13-13.5s13.3,5.7,13.5,13
			C105.3,80.8,99.5,86.9,92.2,87z M126.4,86.4c-7.3,0.1-13.3-5.7-13.5-13s5.7-13.3,13-13.5c7.3-0.1,13.3,5.7,13.5,13
			C139.5,80.2,133.7,86.2,126.4,86.4z"/>
		<path class="st1" d="M113.1,85.1c-0.3-0.4-0.8-0.7-1.3-0.6l-5.2,0.1c-0.5,0-1,0.3-1.2,0.7c-0.3,0.4-0.3,0.9-0.1,1.4l2.7,6.2
			c0.2,0.6,0.8,0.9,1.4,0.9s1.1-0.4,1.4-0.9l2.5-6.3C113.4,86,113.4,85.5,113.1,85.1z"/>
		<path class="st2" d="M132.9,124.9c8-7.2,5.7-16.8-5.3-22.4c-8.7-4.4-21.7-5.1-31.3-1.5c-1.8,0.7-3.4,1.4-5,2.2
			c-0.5,0.4-1,0.9-1.6,1.3c-1.4,0.9-2.7,1.9-3.7,3c-0.1,0.2-0.6,0.5-1,0.8c0,0,0,0,0,0c0,0.3-0.2,0.5-0.4,0.6c0,0,0,0,0,0
			c0,0.3-0.2,0.5-0.4,0.6c0,0,0,0,0,0c0,0.1,0,0.1-0.1,0.2l0,0c0,0,0,0.1,0,0.1c0,0.1,0,0.2-0.1,0.2c-3.3,6.6-1.1,12.4,6.7,17.3
			C102.6,134.7,123.4,133.5,132.9,124.9z M119,129.8c-3.1,0.7-6.3,1.1-10,1c4.8-1.6,8.2-3.6,10.5-6.3c0.1-0.2,0.6-0.3,0.8-0.3
			c1.3,0.1,2.6,0.2,3.9,0.3c-1.2,1.8-2.5,3.5-4.6,5C119.5,129.6,119.2,129.8,119,129.8z M123.9,128.3c1-1.3,1.8-2.5,2.7-3.6
			c0.1-0.2,0.5-0.4,0.8-0.4c1.1-0.1,2.3-0.2,3.7-0.3C129.1,125.8,126.9,127.1,123.9,128.3z M134.2,120.1c-0.4,0.7-0.7,1.3-1.2,1.8
			c-0.3,0.3-0.9,0.5-1.5,0.6c-5.7,1-11.2,0.6-16.7-0.6c-4-0.8-7.6-2-10.7-3.7c-0.3-0.2-0.6-0.6-0.6-0.8c0.1-0.8,0.4-1.6,0.8-2.7
			c3.8,2.7,8.4,4.3,13.7,5.1C123.3,120.7,128.6,120.9,134.2,120.1z M106.5,125.4c-1.8-1.7-3-3.5-3.1-5.6c2.8,1,5.5,1.9,8.4,3
			C110,123.7,108.3,124.6,106.5,125.4z M135.3,116.1c-0.2,2.8,0.2,2.5-3.8,2.9c-8.6,0.8-16.6-0.2-23.4-3.8c-1.1-0.6-1.9-1.3-2.9-1.9
			c0.3-0.4,0.5-0.8,0.8-1.2c0.3-0.4,0.7-0.8,1-1.2C115,115.4,124.1,117.8,135.3,116.1z M134.9,112.5c0.7,2.4,1.1,2.2-2.6,2.6
			c-6.6,0.8-12.6-0.4-18.1-2.5c-2.1-0.8-4-1.9-6.1-2.9c1.1-0.9,2.1-1.7,3.1-2.5C117.6,111.5,125.9,112.5,134.9,112.5
			C134.8,112.4,134.9,112.4,134.9,112.5z M133.7,109.9c0.2,0.3,0.4,0.7,0.6,1c-5.4,0.7-17.7-1.1-21.4-4.8c1.1-0.5,2.2-1.1,3-1.4
			c2.3,1,4.4,2,6.7,2.8c2.8,1,5.9,1.5,9.1,1.6C132.8,109.1,133.4,109.3,133.7,109.9z M124.3,102.7c3.1,1.3,5.5,2.9,7.5,4.8
			c0,0,0,0.1,0,0.3c-5.3-0.4-9.8-1.5-13.4-3.9c0-0.1,0-0.2,0-0.3c1.7-0.3,3.5-0.7,5.2-1C123.8,102.5,124.1,102.6,124.3,102.7z
			 M120.7,101.4c-3.4,0.9-6.3,2-8.8,3.5c-7.6,4.5-11.8,9.9-10.4,16.5c0.4,1.7,1.4,3.2,3.3,4.7c-1.1,0.3-2.1,0.6-3.2,0.9
			c-0.2,0.1-0.7-0.2-0.9-0.4c-2.7-2.5-4.1-5.2-4.3-8.1c-0.4-4.9,2-9.3,7.6-12.9c3.2-2,7.1-3.4,11.6-4.1c0.8-0.1,1.6-0.5,2.4-0.5
			C118.8,101,119.7,101.2,120.7,101.4z M84.9,113.4c1.5-6.5,9.3-10.9,16.4-12.3c-12.6,5.4-17.9,16.4-9.7,24.7
			C87.8,123.9,83.7,118.6,84.9,113.4z M96,127.2c-8.5-6.1-8-15.3,0.7-21.7c2.7-2,6-3.5,9.7-4.8c2.4-0.9,4.8-0.6,7.3-0.4
			c-9.2,2-15.3,5.8-18.3,11.4c-2.9,5.5-1.6,10.8,3.3,15.8C97.6,127.8,96.9,127.9,96,127.2z M103.2,130.2c-1.6-0.3-3.1-0.7-4.7-1
			c6.2-1.1,11.2-3.1,15.6-5.9c1.1,0.2,2.2,0.4,3.8,0.7c-1.4,1.1-2.5,2.2-3.9,3.1c-2.3,1.4-4.8,2.5-8,3.1
			C105,130.3,104,130.3,103.2,130.2z"/>
		<g>
			<path class="st3" d="M139.2,66.4c2.1-4.8,3.4-12.9,1.7-14.3c-1.7-1.3-9.1-0.6-14.5,0.8c-5.2-3.1-11.2-4.9-17.8-4.8
				c-6.6,0.1-12.6,2.1-17.6,5.4c-5.5-1.2-13.5-3.4-15.1-2c-1.7,1.4,0.5,11.3,2.8,15.9c-3.3,6.4-5.1,13.8-4.9,21.6
				c0.4,21.6,6,43.7,36.8,43.1s34.9-22.9,34.5-44.4C144.8,80,142.8,72.6,139.2,66.4z"/>
			<path class="st3" d="M140.9,114.8c-6.8-7.2-18.4-16.4-31.4-16.2c-12.8,0.2-24,9.8-30.6,17.2c5,9.8,14.3,16.7,31.5,16.3
				C127.6,131.8,136.5,124.8,140.9,114.8z"/>
		</g>
		<g>
			<path class="st1" d="M92.8,67.4C84.6,66.2,82.7,79,91,80.2C99.3,81.4,101.1,68.6,92.8,67.4z"/>
			<path class="st1" d="M127.1,66.7c-8.3-1.2-10.2,11.7-1.9,12.9C133.5,80.8,135.4,67.9,127.1,66.7z"/>
		</g>
		<g>
			<path class="st4" d="M90.9,69.9c-2.4-0.3-2.9,3.3-0.5,3.7C92.8,73.9,93.3,70.2,90.9,69.9z"/>
			<path class="st4" d="M125.1,69.3c-2.4-0.3-2.9,3.3-0.5,3.7S127.5,69.6,125.1,69.3z"/>
		</g>
	</g>
	<g>
		<path class="st5" d="M70.1,141.7c1.9,0,3.6,0.3,5.3,0.8c1.7,0.6,3.1,1.5,4.3,2.7c1.2,1.3,2.1,2.7,2.6,4.3c0.5,1.6,0.8,3.4,0.8,5.2
			c0,2-0.3,4-0.9,5.8c-0.6,1.9-1.5,3.4-2.7,4.7s-2.7,2.2-4.5,2.9c-1.8,0.6-3.7,1-5.7,1c-1.9,0-3.8-0.3-5.5-0.9
			c-1.8-0.6-3.2-1.5-4.4-2.7c-1.2-1.2-2-2.6-2.6-4.3c-0.5-1.7-0.8-3.4-0.8-5.2c0-2,0.3-4,1-5.9c0.7-1.9,1.7-3.5,2.9-4.8
			c1.3-1.3,2.8-2.2,4.6-2.8C66.3,142,68.2,141.7,70.1,141.7z M70.1,142.9c-1.8,0-3.5,0.3-5.1,0.8c-1.6,0.6-3,1.4-4.1,2.7
			c-1.2,1.2-2,2.7-2.6,4.4c-0.5,1.7-0.8,3.4-0.8,5.3c0,1.7,0.3,3.4,0.9,5s1.4,2.9,2.5,3.9c1.1,1,2.4,1.8,3.9,2.2
			c1.5,0.5,3.1,0.7,4.7,0.7c1.7,0,3.4-0.3,5-0.8c1.6-0.5,2.9-1.4,4-2.5s2-2.6,2.5-4.3c0.5-1.7,0.8-3.4,0.8-5.3c0-1.8-0.2-3.4-0.7-5
			s-1.3-2.9-2.3-4.1c-1.1-1.1-2.4-1.9-3.8-2.4C73.3,143.1,71.7,142.9,70.1,142.9z"/>
		<path class="st5" d="M95.7,168.7l-6.5-19.2l-1.7-4.8c-0.2-0.6-0.5-1.5-1-2.6c0.3,0,0.7,0,1,0c0.3,0,0.7,0,1,0l1,3.5l7.2,21.6
			l1-1.8l6.9-13.8c-0.7-2.2-1.3-4-1.8-5.4l-1.4-4.1c0.3,0,0.6,0,0.8,0c0.2,0,0.5,0,0.8,0c0.7,2.6,1.6,5.2,2.5,7.8l3.4-7.8
			c0.3,0,0.6,0,0.9,0c0.3,0,0.6,0,0.9,0l-2.4,5c-0.7,1.4-1.4,2.9-2.1,4.5l0.3,1l4.4,13l0.7,1.8l1.2-2.4c0.2-0.5,0.7-1.4,1.3-2.8
			l8.3-17.8c0.3-0.6,0.6-1.3,1-2.3c0.3,0,0.6,0,0.9,0c0.3,0,0.6,0,0.9,0c-0.7,1.4-2.2,4.4-4.3,8.9l-5,10.5c-1.2,2.5-2.3,4.9-3.3,7.3
			c-0.3,0-0.7,0-1,0s-0.7,0-1,0l-2.2-6.6l-3-8.8l-0.5,1c-0.1,0.3-0.5,0.9-0.9,1.9l-6.2,12.5c-0.3,0-0.6,0-0.9,0
			C96.3,168.7,96,168.7,95.7,168.7z"/>
		<path class="st5" d="M127.2,168.7l0.4-6.2l0.5-14l0.1-6.5c0.3,0,0.6,0,0.8,0c0.3,0,0.6,0,0.9,0l-0.7,15.2l-0.4,10.2l4,0
			c2.9,0,4.8,0,5.9,0s2.1-0.1,3.2-0.1c-0.1,0.5-0.1,1-0.1,1.4c-2.8,0-5.1,0-7,0L127.2,168.7z"/>
		<path class="st5" d="M150.3,168.7l0.6-8.4l0.2-3.6l-2.6-4.6l-5.8-9.9c0.3,0,0.6,0,0.9,0c0.3,0,0.6,0,0.9,0l0.8,1.6
			c0.2,0.3,0.7,1.3,1.6,2.8l5,8.8l4.7-7l2.9-4.5c0.3-0.4,0.6-1,1.1-1.8c0.3,0,0.6,0,0.9,0s0.6,0,0.9,0l-9.8,14.6
			c0,0.6,0,1.2-0.1,1.8l-0.3,5c0,0.7-0.1,1.6-0.1,2.5l0,2.7c-0.3,0-0.6,0-0.9,0S150.7,168.7,150.3,168.7z"/>
	</g>
</g>
<circle class="st6" cx="108.1" cy="108.8" r="104.4"/>
</svg>
